<?xml version="1.0" encoding="utf-8"?>
<!-- Generator: Adobe Illustrator 23.0.3, SVG Export Plug-In . SVG Version: 6.00 Build 0)  -->
<svg version="1.1" id="Layer_1" xmlns="http://www.w3.org/2000/svg" xmlns:xlink="http://www.w3.org/1999/xlink" x="0px" y="0px"
	 viewBox="0 0 119 27" style="enable-background:new 0 0 119 27;" xml:space="preserve">
<style type="text/css">
	.st0{fill:#303535;}
	.st1{fill:#FF0000;}
</style>
<title>Group 2</title>
<desc>Created with Sketch.</desc>
<g id="Marshmello_landing-page">
	<g id="Simple_landngpage" transform="translate(-307.000000, -51.000000)">
		<g id="Group-2" transform="translate(307.000000, 50.000000)">
			<path id="Simple" class="st0" d="M46,23.3c-1.5,0-2.8-0.2-3.8-0.7c-1.1-0.5-1.9-1-2.4-1.8c-0.6-0.7-0.8-1.5-0.9-2.4
				c0-0.1,0-0.3,0.1-0.4c0.1-0.1,0.2-0.2,0.4-0.2h2.3c0.2,0,0.3,0,0.5,0.1c0.1,0.1,0.2,0.2,0.3,0.4c0.2,0.6,0.5,1,1.1,1.4
				c0.6,0.4,1.4,0.6,2.4,0.6c1.2,0,2-0.2,2.6-0.6c0.6-0.4,0.9-0.9,0.9-1.6c0-0.5-0.1-0.8-0.5-1.1s-0.8-0.6-1.4-0.8
				c-0.6-0.2-1.5-0.5-2.7-0.8c-2-0.5-3.4-1.1-4.3-1.9c-0.9-0.8-1.4-1.9-1.4-3.3c0-1,0.3-1.8,0.8-2.6c0.5-0.8,1.3-1.4,2.3-1.8
				c1-0.4,2.1-0.7,3.5-0.7c1.4,0,2.6,0.2,3.6,0.7s1.8,1.1,2.3,1.8c0.5,0.7,0.8,1.4,0.8,2.2c0,0.1,0,0.3-0.2,0.4
				c-0.1,0.1-0.2,0.2-0.4,0.2h-2.4c-0.4,0-0.6-0.1-0.8-0.5c-0.1-0.5-0.4-1-1-1.3s-1.3-0.5-2.1-0.5c-0.9,0-1.6,0.2-2.2,0.5
				C43.2,9,43,9.5,43,10.2c0,0.5,0.1,0.8,0.4,1.1c0.3,0.3,0.7,0.6,1.3,0.8s1.4,0.5,2.5,0.8c1.5,0.3,2.7,0.7,3.5,1.1s1.5,0.9,1.9,1.6
				s0.6,1.4,0.6,2.4c0,1.1-0.3,2-0.9,2.8c-0.6,0.8-1.4,1.4-2.5,1.8C48.7,23,47.5,23.3,46,23.3z M56.2,7.9c-0.2,0-0.3-0.1-0.4-0.2
				c-0.1-0.1-0.2-0.3-0.2-0.4V5.4c0-0.2,0.1-0.3,0.2-0.4c0.1-0.1,0.3-0.2,0.4-0.2h2.3c0.2,0,0.3,0.1,0.4,0.2
				c0.1,0.1,0.2,0.3,0.2,0.4v1.8c0,0.2-0.1,0.3-0.2,0.4c-0.1,0.1-0.3,0.2-0.4,0.2H56.2z M56.3,23c-0.2,0-0.3-0.1-0.4-0.2
				c-0.1-0.1-0.2-0.3-0.2-0.4V10.6c0-0.2,0.1-0.3,0.2-0.4c0.1-0.1,0.3-0.2,0.4-0.2h2.1c0.2,0,0.3,0.1,0.4,0.2
				c0.1,0.1,0.2,0.3,0.2,0.4v11.8c0,0.2-0.1,0.3-0.2,0.4c-0.1,0.1-0.3,0.2-0.4,0.2H56.3z M63,23c-0.2,0-0.3-0.1-0.4-0.2
				c-0.1-0.1-0.2-0.3-0.2-0.4V10.6c0-0.2,0.1-0.3,0.2-0.4c0.1-0.1,0.3-0.2,0.4-0.2h2c0.2,0,0.3,0.1,0.4,0.2c0.1,0.1,0.2,0.3,0.2,0.4
				v0.8c0.9-1.1,2.1-1.7,3.6-1.7c1.9,0,3.1,0.7,3.9,2.2c0.4-0.7,1-1.2,1.7-1.6s1.5-0.6,2.4-0.6c1.4,0,2.5,0.5,3.3,1.4
				c0.9,0.9,1.3,2.3,1.3,4.1v7.2c0,0.2-0.1,0.3-0.2,0.4c-0.1,0.1-0.3,0.2-0.4,0.2h-2.1c-0.2,0-0.3-0.1-0.4-0.2
				c-0.1-0.1-0.2-0.3-0.2-0.4v-7c0-1.1-0.2-1.8-0.7-2.3s-1-0.7-1.7-0.7c-0.7,0-1.2,0.2-1.7,0.7c-0.5,0.5-0.7,1.2-0.7,2.3v7
				c0,0.2-0.1,0.3-0.2,0.4c-0.1,0.1-0.3,0.2-0.4,0.2H71c-0.2,0-0.3-0.1-0.4-0.2c-0.1-0.1-0.2-0.3-0.2-0.4v-7c0-1-0.2-1.8-0.7-2.3
				c-0.5-0.5-1-0.7-1.7-0.7c-0.7,0-1.2,0.2-1.7,0.7c-0.5,0.5-0.7,1.2-0.7,2.3v7c0,0.2-0.1,0.3-0.2,0.4c-0.1,0.1-0.3,0.2-0.4,0.2H63z
				 M85.6,27.8c-0.2,0-0.3-0.1-0.4-0.2s-0.2-0.3-0.2-0.4V10.6c0-0.2,0.1-0.3,0.2-0.4c0.1-0.1,0.3-0.2,0.4-0.2h2
				c0.2,0,0.3,0.1,0.4,0.2c0.1,0.1,0.2,0.3,0.2,0.4v1c0.9-1.2,2.2-1.9,4-1.9c1.7,0,3,0.5,3.9,1.6c0.9,1.1,1.4,2.5,1.4,4.3
				c0,0.2,0,0.5,0,0.9s0,0.7,0,0.9c0,1.8-0.5,3.2-1.4,4.2c-0.9,1.1-2.2,1.6-3.9,1.6c-1.7,0-2.9-0.6-3.8-1.8v5.7
				c0,0.2-0.1,0.3-0.2,0.4c-0.1,0.1-0.3,0.2-0.4,0.2H85.6z M91.2,20.5c1.8,0,2.7-1.1,2.9-3.3c0-0.2,0-0.4,0-0.8s0-0.6,0-0.8
				c-0.1-2.2-1.1-3.3-2.9-3.3c-1,0-1.7,0.3-2.1,0.9c-0.5,0.6-0.7,1.4-0.8,2.3c0,0.2,0,0.5,0,1c0,0.4,0,0.8,0,1
				c0,0.8,0.3,1.5,0.8,2.1C89.6,20.3,90.3,20.5,91.2,20.5z M100.9,23c-0.2,0-0.3-0.1-0.4-0.2c-0.1-0.1-0.2-0.3-0.2-0.4V5.8
				c0-0.2,0.1-0.3,0.2-0.4c0.1-0.1,0.3-0.2,0.4-0.2h2.1c0.2,0,0.3,0.1,0.4,0.2c0.1,0.1,0.2,0.3,0.2,0.4v16.5c0,0.2-0.1,0.3-0.2,0.4
				c-0.1,0.1-0.3,0.2-0.4,0.2H100.9z M112.6,23.3c-1.9,0-3.3-0.5-4.4-1.6c-1.1-1.1-1.7-2.6-1.7-4.5l0-0.6c0-2.1,0.5-3.7,1.6-4.9
				c1.1-1.2,2.6-1.8,4.5-1.8c2,0,3.5,0.6,4.6,1.8c1.1,1.2,1.6,2.8,1.6,4.8v0.5c0,0.2-0.1,0.3-0.2,0.4c-0.1,0.1-0.3,0.2-0.5,0.2h-8.3
				v0.2c0,0.9,0.3,1.7,0.8,2.3c0.5,0.6,1.1,0.9,2,0.9c1,0,1.7-0.4,2.3-1.1c0.2-0.2,0.3-0.3,0.3-0.3c0.1,0,0.2-0.1,0.4-0.1h2.2
				c0.2,0,0.3,0,0.4,0.1c0.1,0.1,0.2,0.2,0.2,0.4c0,0.4-0.2,0.9-0.7,1.4c-0.5,0.5-1.2,1-2,1.4C114.7,23.1,113.7,23.3,112.6,23.3z
				 M115.3,15.4L115.3,15.4c0-1-0.2-1.8-0.7-2.4s-1.2-0.9-2-0.9s-1.5,0.3-2,0.9s-0.7,1.4-0.7,2.4v0.1H115.3z"/>
			<path class="st1" d="M16.5,18.2l1.3-2.2l5.2,8.9c-1.2,1-2.6,1.8-4.1,2.3C17.4,27.7,15.8,28,14,28c-1.1,0-2.1-0.1-3-0.3L16.5,18.2
				z M1,19h14l-5.3,9c-2.1-0.8-3.9-1.9-5.3-3.5S1.7,21.1,1,19z M9.3,14l1.7,3H0.3C0.1,16,0,15,0,14c0-1.9,0.3-3.8,1-5.5
				S2.6,5.3,3.8,4L9.3,14z M27.7,12c0.2,1,0.3,2,0.3,3c0,1.9-0.3,3.8-1,5.5c-0.7,1.7-1.6,3.2-2.8,4.6L17,12H27.7z M27,11H13l5.3-9
				c2.1,0.8,3.9,1.9,5.3,3.5C25.2,7.1,26.3,8.9,27,11z M10.3,12.9L10.2,13L5,4.1c1.2-1,2.6-1.8,4.1-2.3S12.2,1,14,1
				C15,1,16,1.1,17,1.3L10.3,12.9z"/>
		</g>
	</g>
</g>
</svg>
